<?xml version="1.0" encoding="UTF-8"?>
<svg id="Layer_2" xmlns="http://www.w3.org/2000/svg" xmlns:xlink="http://www.w3.org/1999/xlink" viewBox="0 0 110.11 68.62">
  <defs>
    <style>
      .cls-1, .cls-2 {
        fill: #59595a;
      }

      .cls-3 {
        fill: url(#linear-gradient-7);
      }

      .cls-4 {
        fill: url(#linear-gradient-5);
      }

      .cls-5 {
        fill: url(#linear-gradient-6);
      }

      .cls-6 {
        fill: url(#linear-gradient-4);
      }

      .cls-7 {
        fill: url(#linear-gradient-3);
      }

      .cls-8 {
        fill: url(#linear-gradient-2);
      }

      .cls-9 {
        fill: url(#linear-gradient);
      }

      .cls-2, .cls-10, .cls-11 {
        font-family: NeulisSans-Bold, 'Neulis Sans';
        font-size: 12.12px;
        font-weight: 700;
      }

      .cls-10, .cls-11 {
        fill: #2d5dab;
      }

      .cls-10, .cls-12 {
        letter-spacing: 0em;
      }

      .cls-13 {
        letter-spacing: -.02em;
      }

      .cls-14 {
        letter-spacing: -.02em;
      }

      .cls-15 {
        letter-spacing: -.04em;
      }

      .cls-16 {
        letter-spacing: -.04em;
      }

      .cls-17 {
        letter-spacing: -.03em;
      }

      .cls-18 {
        letter-spacing: -.03em;
      }

      .cls-19 {
        letter-spacing: 0em;
      }

      .cls-20 {
        letter-spacing: 0em;
      }

      .cls-21 {
        letter-spacing: 0em;
      }

      .cls-22 {
        letter-spacing: 0em;
      }

      .cls-23 {
        letter-spacing: -.01em;
      }

      .cls-24 {
        letter-spacing: -.01em;
      }

      .cls-25 {
        letter-spacing: .01em;
      }
    </style>
    <linearGradient id="linear-gradient" x1="59.18" y1="9.78" x2="66.53" y2="23.7" gradientUnits="userSpaceOnUse">
      <stop offset="0" stop-color="#029147"/>
      <stop offset="1" stop-color="#084120"/>
    </linearGradient>
    <linearGradient id="linear-gradient-2" x1="67.74" y1="-8.72" x2="75.59" y2="24.77" gradientUnits="userSpaceOnUse">
      <stop offset="0" stop-color="#084120"/>
      <stop offset="1" stop-color="#029147"/>
    </linearGradient>
    <linearGradient id="linear-gradient-3" x1="106.64" y1="33.57" x2="107.79" y2="39.37" gradientUnits="userSpaceOnUse">
      <stop offset="0" stop-color="#2e5dab"/>
      <stop offset="1" stop-color="#293883"/>
    </linearGradient>
    <linearGradient id="linear-gradient-4" x1="79.16" y1="14.3" x2="115.51" y2="-2.01" gradientUnits="userSpaceOnUse">
      <stop offset="0" stop-color="#f0b425"/>
      <stop offset="1" stop-color="#f47421"/>
    </linearGradient>
    <linearGradient id="linear-gradient-5" x1="92.76" y1="22.37" x2="97.67" y2="6.04" xlink:href="#linear-gradient"/>
    <linearGradient id="linear-gradient-6" x1="78.95" y1="54.35" x2="110.02" y2="8.99" xlink:href="#linear-gradient-3"/>
    <linearGradient id="linear-gradient-7" x1="87.73" y1="35.15" x2="97.79" y2="11.14" xlink:href="#linear-gradient-3"/>
  </defs>
  <g id="Layer_2-2" data-name="Layer_2">
    <g>
      <text class="cls-11" transform="translate(0 41.36)"><tspan class="cls-12" x="0" y="0">Natio</tspan><tspan class="cls-20" x="31.27" y="0">n</tspan><tspan class="cls-12" x="38.53" y="0">al</tspan></text>
      <g>
        <text class="cls-2" transform="translate(.8 53.02)"><tspan class="cls-14" x="0" y="0">A</tspan><tspan class="cls-12" x="8.18" y="0">g</tspan><tspan class="cls-22" x="15.73" y="0">r</tspan><tspan class="cls-24" x="20.42" y="0">i</tspan></text>
        <text class="cls-11" transform="translate(.8 53.02)"><tspan class="cls-14" x="0" y="0">A</tspan><tspan class="cls-12" x="8.18" y="0">g</tspan><tspan class="cls-22" x="15.73" y="0">r</tspan><tspan class="cls-24" x="20.42" y="0">i</tspan></text>
      </g>
      <g>
        <text class="cls-2" transform="translate(29.84 53.02)"><tspan class="cls-12" x="0" y="0">Fi</tspan><tspan class="cls-23" x="9.48" y="0">s</tspan><tspan class="cls-20" x="15.18" y="0">h</tspan><tspan class="cls-12" x="22.46" y="0">e</tspan><tspan class="cls-25" x="29.66" y="0">r</tspan><tspan class="cls-12" x="34.57" y="0">y</tspan></text>
        <text class="cls-11" transform="translate(29.84 53.02)"><tspan class="cls-12" x="0" y="0">Fi</tspan><tspan class="cls-23" x="9.48" y="0">s</tspan><tspan class="cls-20" x="15.18" y="0">h</tspan><tspan class="cls-12" x="22.46" y="0">e</tspan><tspan class="cls-25" x="29.66" y="0">r</tspan><tspan class="cls-12" x="34.57" y="0">y</tspan></text>
      </g>
      <text class="cls-10" transform="translate(24.98 53.02)"><tspan x="0" y="0">-</tspan></text>
      <text class="cls-11" transform="translate(.8 65)"><tspan class="cls-12" x="0" y="0">I</tspan><tspan class="cls-17" x="3.36" y="0">n</tspan><tspan class="cls-16" x="10.28" y="0">v</tspan><tspan class="cls-12" x="16.71" y="0">e</tspan><tspan class="cls-18" x="23.91" y="0">s</tspan><tspan class="cls-24" x="29.44" y="0">t</tspan><tspan class="cls-21" x="34.11" y="0">m</tspan><tspan class="cls-12" x="45.12" y="0">e</tspan><tspan class="cls-13" x="52.32" y="0">n</tspan><tspan class="cls-12" x="59.35" y="0">t </tspan><tspan class="cls-15" x="66.57" y="0">F</tspan><tspan class="cls-24" x="72.63" y="0">o</tspan><tspan class="cls-19" x="79.85" y="0">r</tspan><tspan class="cls-12" x="84.52" y="0">um</tspan></text>
      <g>
        <circle class="cls-9" cx="60.64" cy="12.55" r="2.96"/>
        <path class="cls-8" d="M83.45,19.98c-3.14,1.11-5.94,2.95-8.21,5.3-1.27,1.32-2.37,2.8-3.27,4.42-.27.48-.52.98-.75,1.49-3.17-2.3-5.28-6.36-5.28-10.97V.13h12.52c-.07.18-.14.36-.21.55-.67,1.85-1.03,3.85-1.03,5.93,0,.21,0,.41.01.62.16,4.48,2,8.54,4.91,11.55.41.43.84.83,1.3,1.21Z"/>
        <path class="cls-1" d="M90.53,18.77c-.56,0-1.11.02-1.66.06,0,0,0,0,0,0-.08.02-.17.05-.25.07,0-.02,0-.03,0-.05,0-.03,0-.06,0-.08h1.92Z"/>
        <circle class="cls-7" cx="107.15" cy="36.13" r="2.96"/>
        <path class="cls-1" d="M75.74,31.54s0,.11-.04.1c-.03,0-.02-.08,0-.1,0,0,.04,0,.04,0Z"/>
        <path class="cls-1" d="M88.87,18.83c-.08.02-.17.05-.25.07,0-.02,0-.03,0-.05.08,0,.17-.01.26-.02Z"/>
        <path class="cls-1" d="M75.74,31.54s0,.11-.04.1c-.03,0-.02-.08,0-.1,0,0,.04,0,.04,0Z"/>
        <path class="cls-1" d="M90.53,18.77c-.56,0-1.11.02-1.66.06.08-.02.15-.04.23-.06h1.43Z"/>
        <path class="cls-1" d="M90.53,18.77c-.56,0-1.11.02-1.66.06,0,0,0,0,0,0-.08.02-.17.05-.25.07,0-.02,0-.03,0-.05,0-.03,0-.06,0-.08h1.92Z"/>
        <path class="cls-1" d="M75.74,31.54s0,.11-.04.1c-.03,0-.02-.08,0-.1,0,0,.04,0,.04,0Z"/>
        <path class="cls-6" d="M88.62,18.85c-1.8.16-3.53.55-5.17,1.13-.45-.38-.89-.79-1.3-1.21-2.91-3.01-4.75-7.07-4.91-11.55,0-.2-.01-.41-.01-.62,0-2.08.36-4.08,1.03-5.93.07-.18.13-.37.21-.55,0,0,7.38-.29,9.82,0,6.95.82,12.63,7.18,13.19,14.24.09,1.1,0,4.4,0,4.4"/>
        <path class="cls-4" d="M101.47,18.77v4c-.27.11-.54.22-.81.31-1.85.67-3.85,1.03-5.93,1.03-2.22,0-4.35-.41-6.31-1.17-1.44-.56-2.79-1.3-4.01-2.19,1.33-.78,2.73-1.4,4.21-1.84.08-.03.17-.05.25-.07,0,0,0,0,0,0,.55-.04,1.1-.06,1.66-.06h10.94Z"/>
        <path class="cls-1" d="M90.53,18.77c-.56,0-1.05.05-1.66.06,0,0,0,0,0,0-.08.02-.17.05-.25.07,0-.02,0-.03,0-.05"/>
        <path class="cls-5" d="M101.47,35.38v11.41c0,3.54-2.87,6.41-6.41,6.41h-19.65c-.06-.13-.12-.26-.17-.4,0,0-.26-12,.15-18.6.02-.32.09-1.84.14-2.16.41,1.24,1.54,3.34,2.92,3.34h23.03Z"/>
        <path class="cls-1" d="M75.74,31.54s0,.11-.04.1c-.03,0-.02-.08,0-.1,0,0,.04,0,.04,0Z"/>
        <path class="cls-3" d="M100.66,23.08c-1.85.67-3.85,1.03-5.93,1.03-2.22,0-4.35-.41-6.31-1.17-1.44-.56-2.79-1.3-4.01-2.19-1.77.38-5.96,4.35-7.32,6.99-1.01,1.95-1.76,3.9-1.61,5.52.12,1.3,1.58,2.13,2.96,2.13h23.03v-12.62c-.27.11-.54.22-.81.31ZM87.34,31.54c-1.61,0-2.92-1.31-2.92-2.92s1.31-2.92,2.92-2.92,2.92,1.31,2.92,2.92-1.31,2.92-2.92,2.92Z"/>
      </g>
    </g>
  </g>
</svg>